<svg xmlns="http://www.w3.org/2000/svg" viewBox="0 0 530.5 138.25" preserveAspectRatio="none"><title>Benedictine College</title><g><path d="M260.73,245.22h26.85c4.45,0,9.82,0,12.58,3.65,1.84,2.42,2.06,5.88,2.06,9.92,0,8.56-1.09,12.62-8.3,14.33,7.44,1.89,8.28,5.3,8.27,12.09,0,8-.55,11.58-2.62,14.18-2.69,3.3-7.06,3.69-11.88,4.14q-13.49,1.24-27,2.67v-12.7l3.6-.3q0-17.68,0-35.37l-3.6.08Zm18.18,12.31q0,5.57,0,11.14l8.59-.32q0-5.5,0-11l-8.59.17m0,22q0,6.24,0,12.48l8.58-.65q0-6.15,0-12.31l-8.59.47" transform="translate(-130.5 -236.98)" style="fill:#0a0203"/><path d="M305.41,250.19l31.23-.2q0,7.28,0,14.56l-10.09.25q0-2.68,0-5.36l-6.39.12q0,4.32,0,8.62l9-.26q0,4.13,0,8.27l-9,.37q0,4.77,0,9.53l6.39-.34q0-2.9,0-5.81l10.78-.46q0,7.49,0,15-16,.95-31.9,2.14,0-4.83,0-9.66l2.88-.17q0-13.48,0-27l-2.88.06q0-4.83,0-9.66" transform="translate(-130.5 -236.98)" style="fill:#0a0203"/><path d="M382,249.77q0,4.43,0,8.85l-2.89,0q0,12.43,0,24.87l2.89-.09q0,4.43,0,8.85-7.06.27-14.12.58-4.5-8.18-9-16.49a41.57,41.57,0,0,1-3.56-8.21c.19,1.72.19,2.4.25,4.07q.11,10.61.22,21.21-6.87.35-13.73.74,0-4.61,0-9.21l2.89-.13q0-12.86,0-25.72l-2.88,0q0-4.6,0-9.21l14.17-.07q4.94,9.53,9.88,18.88a29.66,29.66,0,0,1,2.69,6.22,57.64,57.64,0,0,1-.36-7.91q0-8.62,0-17.24l13.55-.05" transform="translate(-130.5 -236.98)" style="fill:#0a0203"/><path d="M386.48,249.75l31.23-.08q0,6.8,0,13.6l-10.1.09q0-2.48,0-5l-6.4,0q0,4,0,8l9-.11q0,3.84,0,7.68l-9,.15q0,4.39,0,8.79l6.4-.14q0-2.69,0-5.38l10.79-.17q0,7,0,14-16,.32-31.94.9,0-4.41,0-8.82l2.89-.08q0-12.33,0-24.66l-2.88,0q0-4.41,0-8.82" transform="translate(-130.5 -236.98)" style="fill:#0a0203"/><path d="M423.1,249.66l22.45,0c2.32,0,4.89,0,6.9,1,4.08,2,4.14,6.36,4.14,9.74q0,9.62,0,19.24c0,2.5-.07,5-1.07,7.06-1.95,4.08-6.09,4.16-9.67,4.19q-11.39.08-22.78.29c0-2.87,0-5.76,0-8.63l2.82,0q0-12.09,0-24.17H423.1q0-4.32,0-8.64m21.44,8.55-6.58,0q0,12,0,24.08l6.59,0q0-12,0-24.05" transform="translate(-130.5 -236.98)" style="fill:#0a0203"/><path d="M460.92,249.63h17.93q0,4.29,0,8.59h-2.95q0,12,0,24l3,0q0,4.29,0,8.59-9-.08-18-.08v-8.57h2.89q0-12,0-24h-2.89v-8.57" transform="translate(-130.5 -236.98)" style="fill:#0a0203"/><path d="M512.15,249.69q0,6.74,0,13.48l-10.22-.09q0-2.38,0-4.76l-6.58,0q0,12.09,0,24.17l6.59.1q0-3.32,0-6.64l10.73.16q0,7.69,0,15.37-9.09-.23-18.2-.37a23.6,23.6,0,0,1-5.33-.49c-5.78-1.54-5.84-6.21-5.84-9.07q0-10.93,0-21.86c0-2.45,0-5,1.87-7.13,2.45-2.8,6.14-2.86,9.59-2.85l17.37,0" transform="translate(-130.5 -236.98)" style="fill:#0a0203"/><path d="M553.6,249.83q0,8,0,15.91l-8.53-.16q0-3.44,0-6.89l-4.45,0q0,12.41,0,24.83l2.88.09q0,4.44,0,8.88-8.91-.35-17.82-.63,0-4.38,0-8.76l2.89.08q0-12.3,0-24.6l-4.45,0c0,2.26,0,4.52,0,6.79l-8.53-.1q0-7.73,0-15.46,19,0,38,.13" transform="translate(-130.5 -236.98)" style="fill:#0a0203"/><path d="M556.36,249.84l17.94.09q0,4.58,0,9.15l-2.95,0q0,12.78,0,25.56l2.95.13q0,4.57,0,9.15-9-.49-17.94-.9,0-4.49,0-9l2.88.1q0-12.62,0-25.24l-2.88,0q0-4.49,0-9" transform="translate(-130.5 -236.98)" style="fill:#0a0203"/><path d="M618.69,250.2q0,4.85,0,9.69l-2.88-.06q0,13.53,0,27.06l2.89.18q0,4.85,0,9.69-7.05-.53-14.1-1-4.52-9.2-9.05-18.16a48.5,48.5,0,0,1-3.58-8.73c.19,1.79.19,2.48.26,4.2q.14,10.94.29,21.89-6.87-.44-13.73-.82,0-4.6,0-9.2l2.88.13q0-12.93,0-25.86l-2.88,0q0-4.6,0-9.2l14.17.08q5,9.89,9.94,20.05a34.22,34.22,0,0,1,2.7,6.76,65.21,65.21,0,0,1-.39-8.43q0-9.16,0-18.31l13.54.1" transform="translate(-130.5 -236.98)" style="fill:#0a0203"/><path d="M621.95,245.22h38.21v19.93l-12.35-.41q0-3.55,0-7.1l-7.82-.16q0,5.59,0,11.18l11,.43q0,5.52,0,11l-11-.63q0,6.17,0,12.34l7.81.6v-7.69l13.17.9v20.56q-19.48-2.07-39-3.74,0-6,0-11.92l3.53.24q0-16.8,0-33.58l-3.52-.06q0-6,0-11.92" transform="translate(-130.5 -236.98)" style="fill:#0a0203"/><path d="M334.57,305v6.74h-5.3v-3.69h-5.54a5.88,5.88,0,0,0-2.87.42c-.78.45-.78.84-.87,2.46v11c0,.2,0,1.13,0,1.36.19,1.36,1.41,1.52,3.6,1.52h6v-4.08h5.25v7.13H322.12c-2.33,0-5.1-.1-6.81-2.2a5.18,5.18,0,0,1-.87-3.47v-11c0-1.82,0-3.89,2.48-5.28,1.6-.87,3.21-.91,5.2-1Z" transform="translate(-130.5 -236.98)" style="fill:#b30838"/><path d="M372.87,304.93c4.57,0,8.07.49,8.07,5.51v12.18A4.25,4.25,0,0,1,378.7,327c-1.8,1-3.65,1-5.83,1h-5.25c-2.67,0-5.93,0-7.53-2.24-.63-.91-.68-1.49-.83-4.41V311.8c.1-3.24.1-3.63.83-4.63,1.65-2.27,5.3-2.24,7-2.24Zm-8.07,16.59c0,2.72,0,3.27,3.5,3.34H372c3.31,0,3.45-.91,3.45-3.34v-10c.1-3.08-.34-3.56-4.13-3.63h-2.09c-3.84,0-4.47.23-4.47,3.66Z" transform="translate(-130.5 -236.98)" style="fill:#b30838"/><polygon points="282.62 71.09 282.62 87.88 290.34 87.88 290.34 83.34 295.35 83.34 295.35 90.92 274.35 90.92 274.35 87.88 277.27 87.88 277.27 71.09 274.35 71.09 274.35 68.05 285.53 68.05 285.53 71.09 282.62 71.09" style="fill:#b30838"/><polygon points="326.36 71.09 326.36 87.88 334.09 87.88 334.09 83.34 339.1 83.34 339.1 90.92 318.1 90.92 318.1 87.88 321.01 87.88 321.01 71.09 318.1 71.09 318.1 68.05 329.28 68.05 329.28 71.09 326.36 71.09" style="fill:#b30838"/><polygon points="379.53 71.09 370.1 71.09 370.1 77.73 380.26 77.73 380.26 80.81 370.1 80.81 370.1 87.88 379.88 87.88 379.88 83.66 384.88 83.66 384.88 90.92 361.84 90.92 361.84 87.88 364.66 87.88 364.66 71.09 361.84 71.09 361.84 68.05 384.59 68.05 384.59 74.75 379.53 74.75 379.53 71.09" style="fill:#b30838"/><path d="M549.84,314.88h11v13H547.7a14.45,14.45,0,0,1-5.15-.71c-3-1.17-3.16-3.21-3.26-5.22V311.7c0-2.2.1-3.31,1.07-4.47,1.7-2,4.57-2.2,8.31-2.2h11.81v6.67h-5v-3.63H549c-4.08-.06-4.13,1.07-4.18,3.63v9.72c0,2.92.2,3.44,4.18,3.44h6.56v-6.8h-5.69Z" transform="translate(-130.5 -236.98)" style="fill:#b30838"/><polygon points="473.15 71.09 463.72 71.09 463.72 77.73 473.88 77.73 473.88 80.81 463.72 80.81 463.72 87.88 473.49 87.88 473.49 83.66 478.5 83.66 478.5 90.92 455.46 90.92 455.46 87.88 458.28 87.88 458.28 71.09 455.46 71.09 455.46 68.05 478.2 68.05 478.2 74.75 473.15 74.75 473.15 71.09" style="fill:#b30838"/><path d="M211.77,300.25l-.17,0,.17,0m.43-5.92h0m1.73,6.21v-6.37h0c14.75-1.74,26.2-13.78,26.2-28.32,0-15.65-13.61-28.87-29.72-28.87H130.5V375.23l78.82,0a37.82,37.82,0,0,0,37.94-37.6c0-18.32-14.71-34.07-33.33-37.08" transform="translate(-130.5 -236.98)" style="fill:#a1a1a4"/><path d="M134,371.73V240.49h76.4c14.21,0,26.22,11.61,26.22,25.36s-11.84,25-26.39,25h-16V270.38l4.92-3.16H176.58l4.93,3.16v20.5H159.61l-1.37-1.48V305l1.37-1.48H181.5v40.64l-4.92,3.16h22.61l-4.92-3.16V303.52h15v0c18.85.92,34.44,16.14,34.44,34.05a34.31,34.31,0,0,1-34.44,34.09Z" transform="translate(-130.5 -236.98)" style="fill:#fff"/><path d="M135.56,242V370.17h73.76a32.75,32.75,0,0,0,32.88-32.54c0-17.64-15.89-32.54-34.69-32.54H195.83v38.23l8.68,5.57H171.26l8.68-5.57V305.08H160.29l-3.61,3.9V285.43l3.61,3.9h19.65V271.24l-8.68-5.57H204.5l-8.68,5.57v18.09h14.4c13.69,0,24.84-10.54,24.84-23.49S223.77,242,210.4,242Z" transform="translate(-130.5 -236.98)" style="fill:#0a0203"/><path d="M210.23,294.39H190.77V270.73H185v23.66H161.74V300H185v43.79h5.76V300h18.56v0a39.71,39.71,0,0,1,4.61.48v-6.37a31.33,31.33,0,0,1-3.71.23" transform="translate(-130.5 -236.98)" style="fill:#b30838"/><rect x="161.49" y="102.37" width="336.03" height="1.06" style="fill:#231f20"/><path d="M298.14,361.23c-.4,0-.9.08-1.44,1.56a6.16,6.16,0,0,0-.5,1.77c0,1.61,2.56,1.25,2.56,1.86s-.73.31-1.23.31c-.76,0-1.47-.09-2.23-.09s-1.4.09-2.09.09c-.33,0-.71,0-.71-.25,0-.51,1.21-.38,1.8-1.63l6.42-13.55c.17-.36.28-.78.59-.78s.26,0,.57.71l6.4,13.7c.76,1.59,2,.72,2,1.46,0,.38-.21.34-.85.34-.85,0-1.49-.09-3.06-.09-1,0-1.92.09-2.61.09-.43,0-.74,0-.74-.27,0-.65,1.68-.4,1.68-1.77a3.69,3.69,0,0,0-.43-1.5c-.78-1.75-.9-2-1.52-2Zm3.93-1.21c.43,0,.76,0,.76-.2a2,2,0,0,0-.26-.83l-1.94-4.05c-.14-.18-.07-.18-.19-.18s-.14,0-.26.27l-1.82,4a2,2,0,0,0-.26.83c0,.23.33.2.76.2Z" transform="translate(-130.5 -236.98)" style="fill:#231f20;stroke:#231f20;stroke-miterlimit:10"/><path d="M323.86,355.22c0-.93-.2-1-1-1H321.1c-2.31,0-1.7,2.54-2.62,2.54-.43,0-.31-.43-.26-.68l.33-2.55c0-.19,0-.47.33-.47,1.9,0,3.27.08,6.26.08s4.36-.08,6.26-.08c.31,0,.31.27.33.47l.23,1.78c0,.23.26,1-.27,1-.82,0-.17-2.15-2.52-2.07h-1.74c-.84,0-1,.1-1,1V364c0,2.38,2.62,1.82,2.62,2.36s-.41.41-1,.41c-.82,0-1.49-.08-2.86-.08s-2,.08-2.86.08c-.37,0-.72,0-.72-.41,0-.75,2.31.17,2.31-2.13Z" transform="translate(-130.5 -236.98)" style="fill:#231f20;stroke:#231f20;stroke-miterlimit:10"/><path d="M353.81,357.19c0,.19.1.64-.25.64s-.47-.41-.61-.66a6.17,6.17,0,0,0-5.19-3.54c-3,0-4.66,2.71-4.66,5.3s1.63,6.55,5.54,6.55c3.17,0,4.56-2.53,5.09-2.53.1,0,.29.1.29.21,0,.77-2.17,3.69-6.52,3.69a6.44,6.44,0,0,1-6.92-6.48c0-3.25,2.11-7.52,7.26-7.52,2.48,0,4.05,1.18,4.66,1.18.39,0,.41-.64.69-.64.1,0,.25,0,.25.12Z" transform="translate(-130.5 -236.98)" style="fill:#231f20;stroke:#231f20;stroke-miterlimit:10"/><path d="M377.17,364c0,2.46,2.13,1.74,2.13,2.49,0,.25-.16.23-.43.23-.68,0-1.88-.08-2.72-.08s-1.53.08-2.58.08c-.29,0-.41-.08-.41-.21,0-.68,1.49-.16,1.49-2V361c0-.81.06-1-.84-1h-5.46c-.94,0-1,.19-1,1v3c0,2.4,2.54,1.7,2.54,2.4,0,.12,0,.27-.61.27-.84,0-1.51-.08-3-.08-.86,0-1.72.08-2.74.08-.25,0-.45,0-.45-.29,0-.77,1.74-.08,1.74-2.47v-8.63c0-2.1-2.31-1.25-2.31-2,0-.29.61-.31,1-.31.61,0,1.23.08,2.29.08,1.23,0,2-.08,2.64-.08.29,0,.47.1.47.29,0,.6-1.58,0-1.58,1.76v3.07c0,.53.08.78.51.78h6.08c.59,0,.72-.45.72-.87v-2.72c0-2.13-2.25-1.43-2.25-2,0-.34.18-.31.47-.31.84,0,1.37.08,2.64.08,1.06,0,1.82-.08,2.7-.08.35,0,.43.06.43.23,0,.73-1.47-.1-1.47,1.8Z" transform="translate(-130.5 -236.98)" style="fill:#231f20;stroke:#231f20;stroke-miterlimit:10"/><path d="M392.25,364.32c0,2.38,2.29,1.49,2.29,2.11,0,.21-.18.29-.65.29-.76,0-1.51-.08-3.11-.08-.88,0-1.76.08-2.29.08a.21.21,0,0,1-.23-.23c0-.68,1.47-.18,1.47-2V355.2c0-1.76-2.31-1.22-2.31-1.89,0-.33.51-.28.7-.28.8,0,1.59.08,2.31.08s1.48-.08,2.64-.08c.62,0,.72,0,.72.28,0,.66-1.53,0-1.53,1.79Z" transform="translate(-130.5 -236.98)" style="fill:#231f20;stroke:#231f20;stroke-miterlimit:10"/><path d="M403.62,362.76c-.06-.27-.27-.83.25-.83.33,0,.37.18.45.43.66,1.86,1.92,3.61,4.19,3.61a2.53,2.53,0,0,0,2.82-2.47c0-1.64-1.29-1.9-4.58-3.27-1.76-.74-3-1.49-3-3.52a3.78,3.78,0,0,1,4-3.85c1.68,0,2.54.76,3.15.76.27,0,.78-.31,1-.31s.25.29.29.73l.22,2.59c0,.42,0,.66-.47.66s-.78-3.6-4.3-3.6a2,2,0,0,0-2.27,2c0,1.3,1.13,1.55,3.87,2.69,2.19.91,3.54,1.74,3.54,4.19s-1.88,4.26-4.56,4.26a16.26,16.26,0,0,1-3.48-.72c-.51-.11-.49-.27-.59-.74Z" transform="translate(-130.5 -236.98)" style="fill:#231f20;stroke:#231f20;stroke-miterlimit:10"/><path d="M429.6,352.86c4,0,7,2.46,7,6.56,0,2.71-1.25,7.44-7.77,7.44-4.11,0-6.87-2.61-6.87-6.53,0-4.24,2.72-7.43,7.61-7.47M429.46,366c3.52-.06,4.66-2.65,4.66-5.86,0-4.27-2.5-6.51-5.13-6.48-3.46.06-4.48,2.73-4.48,5.53s1.29,6.87,4.95,6.81" transform="translate(-130.5 -236.98)" style="fill:#231f20;stroke:#231f20;stroke-miterlimit:10"/><path d="M447.38,356.74c0-3.71-2.29-2.45-2.29-3.38a.31.31,0,0,1,.35-.33c.39,0,.76.07,1.15.07s1.06-.07,2.15-.07c.65,0,.41.13.78.5l8.22,8.53c.27.27.51.5.63.5s.16-.24.16-.72v-6.44c0-1.76-2.49-1.41-2.49-2a.3.3,0,0,1,.33-.33c.33,0,.92.07,2.33.07s2-.07,2.19-.07c.39,0,.39.19.39.25,0,.58-1.74.12-1.74,2.15v10.85c0,.42,0,.58-.24.58a.61.61,0,0,1-.53-.27l-9.84-10.05c-.14-.15-.26-.25-.37-.25s-.16.13-.16.31v6.57c0,3.71,2.62,2.4,2.62,3.31,0,.27-.51.25-.78.25-1,0-1.7-.08-2.41-.08s-1.21.08-1.76.08c-.22,0-.63.1-.63-.23,0-.77,2-.43,2-2.4Z" transform="translate(-130.5 -236.98)" style="fill:#231f20;stroke:#231f20;stroke-miterlimit:10"/><path d="M475.07,366.12c0,2.7-2.19,4.55-3,4.55a.24.24,0,0,1-.26-.28c0-.41,1.58-.91,1.58-2.79s-2-2.34-2-2.79a3.06,3.06,0,0,1,1.78-1.63c.59,0,1.9,1.11,1.9,2.93" transform="translate(-130.5 -236.98)" style="fill:#231f20;stroke:#231f20;stroke-miterlimit:10"/><path d="M510.81,356.82c-.14.11-.52.45-.52.65s.21.47.57.92l4.53,5.75c1.85,2.38,2.89,1.75,2.89,2.31,0,.16,0,.3-.31.3-.52,0-1.14-.09-1.78-.09-.45,0-.92.09-1.59.09-.45,0-.69,0-1.16-.65L508.73,360c-.31-.38-.45-.63-.59-.63s-.59.38-1.11.94c-.36.38-.31.58-.31,1.1v2.93c0,2.06,2.32,1.34,2.32,2.15,0,.2-.09.27-.67.27s-1.28-.09-2.63-.09c-1.13,0-2.37.09-3.11.09-.45,0-.73,0-.73-.18,0-1.12,1.9.33,1.9-3v-9.74c0-2.71-2.49-1.56-2.49-2.55,0-.25.19-.33.47-.33.45,0,1.23.09,2.85.09,1.32,0,2.82-.09,3.29-.09.21,0,.5,0,.5.27,0,.9-1.71-.31-1.71,2.15v5.13c0,.22,0,.54.12.52s.28-.09.59-.38l3.13-2.89c.66-.63,3-2.44,3-3.45,0-.7-1.45-.4-1.45-.92s.24-.43.54-.43,1.87.09,2.58.09,1.21-.09,2.22-.09c.19,0,.62,0,.62.38,0,.6-.76-.07-3.06,1.9Z" transform="translate(-130.5 -236.98)" style="fill:#231f20;stroke:#231f20;stroke-miterlimit:10"/><path d="M531.77,362c-.35,0-.78.08-1.25,1.35a5.38,5.38,0,0,0-.43,1.53c0,1.39,2.21,1.08,2.21,1.61s-.63.27-1.06.27c-.66,0-1.27-.08-1.92-.08s-1.21.08-1.8.08c-.29,0-.61,0-.61-.21,0-.45,1-.33,1.55-1.41L534,353.4c.14-.31.25-.68.51-.68s.22,0,.49.62l5.52,11.83c.66,1.37,1.76.62,1.76,1.26,0,.33-.19.29-.74.29-.73,0-1.29-.08-2.64-.08-.9,0-1.66.08-2.25.08-.37,0-.63,0-.63-.23,0-.56,1.45-.35,1.45-1.53a3.19,3.19,0,0,0-.37-1.3c-.68-1.51-.78-1.7-1.31-1.7Zm3.39-1c.37,0,.65,0,.65-.17a1.69,1.69,0,0,0-.22-.72l-1.68-3.5c-.12-.15-.06-.15-.16-.15s-.12,0-.22.23L531.95,360a1.71,1.71,0,0,0-.22.72c0,.19.29.17.65.17Z" transform="translate(-130.5 -236.98)" style="fill:#231f20;stroke:#231f20;stroke-miterlimit:10"/><path d="M552.53,356.75c0-3.71-2.29-2.45-2.29-3.38a.31.31,0,0,1,.35-.33c.39,0,.76.07,1.15.07s1.06-.07,2.14-.07c.65,0,.41.13.78.5l8.22,8.53c.27.27.51.5.63.5s.16-.23.16-.72v-6.44c0-1.76-2.5-1.41-2.5-2a.3.3,0,0,1,.33-.33c.33,0,.92.07,2.33.07s2-.07,2.19-.07c.39,0,.39.19.39.25,0,.58-1.74.12-1.74,2.15v10.85c0,.42,0,.58-.25.58a.62.62,0,0,1-.53-.27l-9.84-10.05c-.14-.15-.26-.25-.37-.25s-.16.13-.16.31v6.57c0,3.71,2.62,2.4,2.62,3.31,0,.27-.52.25-.78.25-1,0-1.7-.08-2.41-.08s-1.21.08-1.76.08c-.23,0-.63.1-.63-.23,0-.77,2-.43,2-2.4Z" transform="translate(-130.5 -236.98)" style="fill:#231f20;stroke:#231f20;stroke-miterlimit:10"/><path d="M575.81,362.76c-.06-.27-.27-.83.25-.83.33,0,.37.18.45.43.65,1.86,1.92,3.61,4.19,3.61a2.53,2.53,0,0,0,2.82-2.47c0-1.64-1.29-1.9-4.58-3.27-1.76-.74-3-1.49-3-3.52a3.79,3.79,0,0,1,4-3.85c1.68,0,2.54.76,3.15.76.27,0,.78-.31,1-.31s.24.29.29.73l.22,2.59c0,.42,0,.66-.47.66s-.78-3.6-4.29-3.6a2,2,0,0,0-2.27,2c0,1.3,1.12,1.55,3.86,2.69,2.19.91,3.54,1.74,3.54,4.19s-1.88,4.26-4.56,4.26a16.24,16.24,0,0,1-3.48-.72c-.51-.11-.49-.27-.59-.74Z" transform="translate(-130.5 -236.98)" style="fill:#231f20;stroke:#231f20;stroke-miterlimit:10"/><path d="M598.8,362c-.35,0-.78.08-1.25,1.35a5.31,5.31,0,0,0-.43,1.53c0,1.39,2.21,1.08,2.21,1.61s-.63.27-1.06.27c-.66,0-1.27-.08-1.92-.08s-1.21.08-1.8.08c-.29,0-.61,0-.61-.21,0-.45,1-.33,1.56-1.41L601,353.4c.15-.31.25-.68.51-.68s.23,0,.49.62l5.52,11.83c.65,1.37,1.76.62,1.76,1.26,0,.33-.18.29-.74.29-.74,0-1.29-.08-2.64-.08-.9,0-1.66.08-2.25.08-.37,0-.63,0-.63-.23,0-.56,1.45-.35,1.45-1.53a3.16,3.16,0,0,0-.37-1.3c-.67-1.51-.78-1.7-1.31-1.7Zm3.39-1c.37,0,.65,0,.65-.17a1.72,1.72,0,0,0-.22-.72l-1.68-3.5c-.12-.15-.06-.15-.16-.15s-.12,0-.22.23L599,360a1.72,1.72,0,0,0-.22.72c0,.19.29.17.65.17Z" transform="translate(-130.5 -236.98)" style="fill:#231f20;stroke:#231f20;stroke-miterlimit:10"/><path d="M618.24,362.76c-.06-.27-.26-.83.25-.83.33,0,.37.18.45.43.66,1.86,1.92,3.61,4.19,3.61a2.53,2.53,0,0,0,2.82-2.47c0-1.64-1.29-1.9-4.58-3.27-1.76-.74-3-1.49-3-3.52a3.78,3.78,0,0,1,4-3.85c1.67,0,2.54.76,3.15.76.27,0,.78-.31,1-.31s.25.29.29.73l.23,2.59c0,.42,0,.66-.47.66s-.78-3.6-4.3-3.6a2,2,0,0,0-2.27,2c0,1.3,1.12,1.55,3.86,2.69,2.19.91,3.54,1.74,3.54,4.19s-1.88,4.26-4.56,4.26a16.25,16.25,0,0,1-3.48-.72c-.51-.11-.49-.27-.59-.74Z" transform="translate(-130.5 -236.98)" style="fill:#231f20;stroke:#231f20;stroke-miterlimit:10"/></g></svg>